<svg data-v-2cb57da0="" version="1.0" xmlns="http://www.w3.org/2000/svg" xmlns:xlink="http://www.w3.org/1999/xlink" width="680" height="500" viewBox="0 0 340.000000 250.000000" preserveAspectRatio="xMidYMid meet" color-interpolation-filters="sRGB" style="margin: auto;"> <rect data-v-2cb57da0="" x="0" y="0" width="100%" height="100%" fill="url(#watermark)" fill-opacity="1" class="watermarklayer"></rect> <g data-v-2cb57da0="" fill="#0a5694" class="icon-text-wrapper icon-svg-group iconsvg" transform="translate(81.43102259700497,66.8784408569336)"><g class="iconsvg-imagesvg" transform="translate(58.56897735595703,0)"><g><rect fill="#0a5694" fill-opacity="0" stroke-width="2" x="0" y="0" width="60" height="60" class="image-rect"></rect> <svg filter="url(#colors7295594486)" x="0" y="0" width="60" height="60" filtersec="colorsf631835988" class="image-svg-svg primary" style="overflow: visible;"><svg xmlns="http://www.w3.org/2000/svg" viewBox="6 6 36 36" x="0px" y="0px"><title>programing</title><g data-name="Layer 2"><path d="M11,42H37a5,5,0,0,0,5-5V11a5,5,0,0,0-5-5H11a5,5,0,0,0-5,5v1a1,1,0,0,0,1,1h7V35H7a1,1,0,0,0-1,1v1A5,5,0,0,0,11,42ZM37,8a3,3,0,0,1,3,3V37a3,3,0,0,1-3,3H15l.09-.14.17-.27a5.21,5.21,0,0,0,.28-.52l.13-.3c.07-.2.12-.39.17-.59a2.29,2.29,0,0,0,.07-.28A4.43,4.43,0,0,0,16,37V11a4.5,4.5,0,0,0-.09-.9,2.86,2.86,0,0,0-.07-.28,4.43,4.43,0,0,0-.18-.59c0-.1-.08-.2-.12-.3s-.18-.35-.28-.52l-.17-.27C15.05,8.09,15,8,15,8ZM8,11a3,3,0,1,1,6,0Zm6,26a3,3,0,0,1-6,0Z"></path><path d="M21.88,16.71a1,1,0,1,0,1.41-1.42L22,14l1.29-1.29a1,1,0,0,0,0-1.42,1,1,0,0,0-1.41,0l-2,2a1,1,0,0,0,0,1.42Z"></path><path d="M32.88,16.71a1,1,0,0,0,1.41,0l2-2a1,1,0,0,0,0-1.42l-2-2a1,1,0,0,0-1.41,0,1,1,0,0,0,0,1.42L34.17,14l-1.29,1.29A1,1,0,0,0,32.88,16.71Z"></path><path d="M26.55,16.89A.93.93,0,0,0,27,17a1,1,0,0,0,.89-.55l2-4a1,1,0,1,0-1.78-.9l-2,4A1,1,0,0,0,26.55,16.89Z"></path><path d="M20,21h1a1,1,0,0,0,0-2H20a1,1,0,0,0,0,2Z"></path><path d="M23,20a1,1,0,0,0,1,1h4a1,1,0,0,0,0-2H24A1,1,0,0,0,23,20Z"></path><path d="M20,37h1a1,1,0,0,0,0-2H20a1,1,0,0,0,0,2Z"></path><path d="M28,35H24a1,1,0,0,0,0,2h4a1,1,0,0,0,0-2Z"></path><path d="M33,24a1,1,0,0,0,0-2H27a1,1,0,0,0,0,2Z"></path><path d="M30,25a1,1,0,0,0,0,2h6a1,1,0,0,0,0-2Z"></path><path d="M36,28H30a1,1,0,0,0,0,2h6a1,1,0,0,0,0-2Z"></path><path d="M36,31H30a1,1,0,0,0,0,2h6a1,1,0,0,0,0-2Z"></path></g></svg></svg> <defs><filter id="colors7295594486"><feColorMatrix type="matrix" values="0 0 0 0 0.0390625  0 0 0 0 0.3359375  0 0 0 0 0.578125  0 0 0 1 0" class="icon-fecolormatrix"></feColorMatrix></filter> <filter id="colorsf631835988"><feColorMatrix type="matrix" values="0 0 0 0 0.99609375  0 0 0 0 0.99609375  0 0 0 0 0.99609375  0 0 0 1 0" class="icon-fecolormatrix"></feColorMatrix></filter> <filter id="colorsb6472202610"><feColorMatrix type="matrix" values="0 0 0 0 0  0 0 0 0 0  0 0 0 0 0  0 0 0 1 0" class="icon-fecolormatrix"></feColorMatrix></filter></defs></g></g> <g transform="translate(0,67)"><g data-gra="path-name" fill-rule="" class="tp-name iconsvg-namesvg" transform="translate(0,0)"><g transform="scale(1)"><g><path d="M8.31-21.93L8.17-29.09Q8.92-30.98 10.42-30.59L10.42-30.59Q11.91-29.31 11.65-27.33L11.65-27.33Q11.34-24.74 11.34-22.15L11.34-22.15Q11.34-21.09 12.66-21.09L12.66-21.09Q14.99-21.23 15.91-20.96L15.91-20.96Q17.49-20.43 15.95-18.63L15.95-18.63Q14.55-17.53 12.3-17.97L12.3-17.97Q11.25-17.97 11.25-16.83L11.25-16.83Q11.16-8.22 11.47 1.49L11.47 1.49Q10.9 4.48 8.96 3.3L8.96 3.3Q8.31 2.86 8.17 1.93L8.17 1.93Q8.35-3.56 8.35-9.23L8.35-9.23 8.35-16.83Q8.35-17.89 7.03-17.8L7.03-17.8Q5.45-17.58 2.86-16.79L2.86-16.79Q2.11-16.96 1.76-17.67L1.76-17.67Q1.41-18.46 2.11-19.25L2.11-19.25Q5.01-21.75 7.25-20.92L7.25-20.92Q8.31-20.87 8.31-21.93L8.31-21.93ZM27.16-29.22L27.16-29.22Q27.69-30.5 29.09-30.15L29.09-30.15Q30.37-29.58 30.41-27.95L30.41-27.95Q30.41-26.72 31.29-26.72L31.29-26.72 32.12-26.72Q33.18-26.72 33.49-28.04L33.49-28.04Q33.27-29.66 35.02-30.06L35.02-30.06Q36.56-30.15 36.91-28.3L36.91-28.3Q36.91-27.47 36.21-26.94L36.21-26.94Q35.77-26.76 37.09-26.67L37.09-26.67 38.36-26.59Q39.77-26.81 40.12-25.4L40.12-25.4Q39.86-23.6 37.35-24.08L37.35-24.08Q34.37-24.21 31.16-24.17L31.16-24.17Q30.06-24.17 30.06-23.6L30.06-23.6Q30.06-22.94 31.11-22.94L31.11-22.94Q34.41-22.9 36.65-22.46L36.65-22.46Q38.94-21.45 38.23-18.63L38.23-18.63Q38.28-16 38.14-13.36L38.14-13.36Q38.06-11.65 36.91-11.12L36.91-11.12Q36.12-11.29 36.91-9.84L36.91-9.84Q36.87-9.14 38.19-9.05L38.19-9.05 42.5-8.96Q43.81-8.75 43.95-8.53L43.95-8.53Q44.34-7.69 43.37-6.86L43.37-6.86Q42.14-4.7 40.03-5.19L40.03-5.19Q38.89-5.76 37.71-6.02L37.71-6.02Q36.56-6.33 36.56-5.27L36.56-5.27 36.61-1.05Q36.65 1.41 33.71 2.68L33.71 2.68Q29.44 4.09 25.88 1.85L25.88 1.85Q24.7 1.05 25.62 0.09L25.62 0.09 29.53 0.18Q32.61 0.09 33.57-1.93L33.57-1.93Q33.93-3.52 33.79-5.58L33.79-5.58Q33.79-6.68 32.43-6.77L32.43-6.77Q25.05-7.25 17.14-5.93L17.14-5.93Q15.91-5.41 14.5-5.89L14.5-5.89Q12.96-6.77 14.46-8.35L14.46-8.35Q15.6-9.23 16.79-9.36L16.79-9.36 32.04-9.27Q33.53-9.23 33.53-9.93L33.53-9.93Q33.53-11.69 35.11-11.87L35.11-11.87Q35.55-11.82 35.38-12.3L35.38-12.3Q35.33-12.83 33.97-12.92L33.97-12.92Q32.65-13.05 31.29-13.01L31.29-13.01Q30.23-13.01 30.19-11.69L30.19-11.69Q30.15-10.15 28.87-9.8L28.87-9.8Q27.29-9.8 27.29-11.87L27.29-11.87Q27.2-12.92 26.15-12.92L26.15-12.92Q24.74-12.96 23.29-12.83L23.29-12.83Q22.24-12.79 21.97-11.47L21.97-11.47Q21.49-10.06 20.35-10.2L20.35-10.2Q19.38-10.81 19.34-11.73L19.34-11.73Q19.16-17.31 19.56-21.14L19.56-21.14Q19.51-22.32 20.52-22.63L20.52-22.63Q22.32-23.12 26.28-23.03L26.28-23.03Q27.42-23.03 27.42-23.55L27.42-23.55Q27.33-24.21 26.28-24.21L26.28-24.21Q23.16-24.17 19.56-23.91L19.56-23.91Q18.46-23.69 17.58-24.13L17.58-24.13Q16.57-25.36 17.89-26.54L17.89-26.54Q18.85-27.25 19.64-27.2L19.64-27.2Q22.85-26.72 26.06-26.72L26.06-26.72Q27.11-26.72 27.11-28.04L27.11-28.04Q26.98-28.61 27.16-29.22ZM35.29-19.6L35.29-19.6Q34.37-20.43 31.2-20.57L31.2-20.57Q30.1-20.57 30.1-19.91L30.1-19.91Q30.1-19.16 31.42-19.2L31.42-19.2Q32.87-19.29 34.32-19.25L34.32-19.25Q35.42-19.29 35.29-19.6ZM26.1-20.43L26.1-20.43Q23.64-20.39 22.28-19.64L22.28-19.64Q22.06-19.29 23.42-19.2L23.42-19.2Q24.87-19.07 26.32-19.12L26.32-19.12Q27.42-19.12 27.42-19.78 27.42-20.43 26.1-20.43ZM27.42-16L27.42-16Q27.42-16.57 26.37-16.57L26.37-16.57Q24.92-16.61 23.42-16.52L23.42-16.52Q22.19-16.7 22.19-15.95L22.19-15.95Q22.19-15.69 23.51-15.51L23.51-15.51 26.32-15.47Q27.42-15.47 27.42-16ZM33.97-16.57L33.97-16.57Q32.61-16.7 31.2-16.7L31.2-16.7Q30.1-16.7 30.1-16.13 30.1-15.56 31.42-15.56L31.42-15.56Q32.7-15.64 33.97-15.6L33.97-15.6Q35.29-15.64 35.33-16.04L35.33-16.04Q35.33-16.48 33.97-16.57ZM21.84-4L24.57-5.05Q25.88-6.02 26.15-6.02L26.15-6.02Q27.6-5.54 26.59-3.82L26.59-3.82Q25.14-0.79 22.85-0.53L22.85-0.53Q21.18-0.57 20.96-2.15L20.96-2.15Q20.79-3.08 21.84-4L21.84-4ZM56.12-29.88L56.12-29.88Q57.48-30.37 60.12-30.1L60.12-30.1Q69.48-30.01 78.97-30.1L78.97-30.1Q79.85-30.23 80.55-29.66L80.55-29.66Q80.86-29.44 80.64-28.83L80.64-28.83Q78.97-26.28 76.42-27.25L76.42-27.25 75.63-27.33Q74.44-27.38 74.31-26.19L74.31-26.19Q74.27-22.59 74.4-18.85L74.4-18.85Q74.4-17.8 75.45-17.71L75.45-17.71 85.91-17.49Q87.1-17.67 87.76-17.09L87.76-17.09Q88.2-15.73 85.52-13.67L85.52-13.67Q84.38-12.83 82.88-13.4L82.88-13.4Q79.28-14.9 75.01-15.16L75.01-15.16Q73.56-15.16 74.18-15.03L74.18-15.03Q75.89-14.11 75.32-12.26L75.32-12.26Q75.1-10.68 75.19-9.1L75.19-9.1Q75.28-7.25 75.01-4.48L75.01-4.48Q74.49-0.53 69.96 1.49L69.96 1.49Q65.43 3.3 60.07 3.03L60.07 3.03Q56.91 2.55 57.08-0.35L57.08-0.35Q57.52-1.63 59.24-1.14L59.24-1.14Q65-0.31 67.63-1.19L67.63-1.19Q69.04-1.49 70.27-2.33L70.27-2.33Q71.15-2.99 71.41-3.38L71.41-3.38Q72.11-6.33 71.94-11.03L71.94-11.03Q71.19-13.58 72.07-14.55L72.07-14.55Q72.55-14.99 72.95-15.07 73.34-15.16 72.03-15.25L72.03-15.25Q62.09-15.82 52.03-13.71L52.03-13.71Q51.37-13.4 50.05-13.62L50.05-13.62Q47.86-14.59 49.7-16.57L49.7-16.57Q50.71-17.53 54.4-17.75L54.4-17.75 63.37-17.93 69.79-17.93Q71.15-17.89 71.15-18.98L71.15-18.98Q71.32-22.72 71.15-26.46L71.15-26.46Q71.06-27.6 69.79-27.64L69.79-27.64Q62.4-27.86 57-26.46L57-26.46Q56.07-26.19 54.98-26.41L54.98-26.41Q54.05-26.94 54.23-28.17L54.23-28.17Q54.8-29.49 56.12-29.88ZM59.37-26.15L59.37-26.15Q65.43-26.46 67.68-25.84L67.68-25.84Q68.95-25.05 68.33-23.73L68.33-23.73Q68.16-22.85 68.16-21.97L68.16-21.97Q67.81-18.85 65.04-19.2L65.04-19.2Q63.41-19.51 61.13-19.25L61.13-19.25Q58.18-18.15 58.05-21.27L58.05-21.27Q57.92-22.68 57.96-24.13L57.96-24.13Q58.1-24.57 58.1-25L58.1-25Q58.54-26.37 59.37-26.15ZM63.54-23.95L63.54-23.95 62.09-23.91Q61.04-23.73 60.91-22.85L60.91-22.85Q60.95-21.97 61.17-21.84L61.17-21.84Q62.53-21.97 64.03-21.97L64.03-21.97Q65.48-21.49 65-23.6L65-23.6Q64.86-23.86 63.54-23.95ZM58.93-13.49L58.93-13.49Q59.81-13.36 60.69-13.4L60.69-13.4Q63.46-13.54 66.23-13.49L66.23-13.49Q68.69-13.45 68.55-11.25L68.55-11.25Q68.38-10.28 68.42-9.49L68.42-9.49Q68.16-5.01 63.37-6.28L63.37-6.28Q61.44-6.46 59.68-5.93L59.68-5.93Q57.74-5.67 57.57-7.65L57.57-7.65Q57.39-8.79 57.44-11.47L57.44-11.47Q57.39-13.18 58.93-13.49ZM63.59-11.12L61.92-11.12Q60.47-10.94 60.47-9.98L60.47-9.98Q60.47-8.88 61.74-8.88L61.74-8.88Q62.93-9.01 64.12-8.96L64.12-8.96Q65.17-9.1 65.17-10.11L65.17-10.11Q65.04-11.03 63.59-11.12L63.59-11.12ZM101.03-29.66L101.03-29.66Q102.52-31.42 103.89-29.27L103.89-29.27Q104.33-28.3 103.58-27.11L103.58-27.11Q102.83-25.4 100.72-23.99L100.72-23.99Q100.06-23.64 99.05-22.59L99.05-22.59Q98.04-21.49 99.14-20.43L99.14-20.43Q100.37-19.64 101.47-19.38L101.47-19.38Q102.3-19.64 103.89-20.79L103.89-20.79Q105.56-21.67 104.11-23.55L104.11-23.55Q104.28-24.26 105.03-24.74L105.03-24.74Q106.57-25.36 108.28-23.16L108.28-23.16Q108.85-21.58 107.49-20.13L107.49-20.13Q105.29-17.84 99.62-14.85L99.62-14.85Q98.31-13.8 99.49-12.92L99.49-12.92Q102.92-11.07 105.47-13.45L105.47-13.45Q106.13-14.19 105.42-15.12L105.42-15.12Q104.77-15.91 104.81-16.26L104.81-16.26Q105.12-17.36 106.13-17.4L106.13-17.4Q108.06-17.49 109.29-15.25L109.29-15.25Q109.86-13.1 107.27-10.94L107.27-10.94Q106.08-10.46 104.94-9.45L104.94-9.45Q103.97-9.05 103.8-7.87L103.8-7.87Q103.67-7.08 103.71-6.28L103.71-6.28Q104.11-3.21 103.97 0.22L103.97 0.22Q103.97 2.02 102.74 2.59L102.74 2.59Q101.03 2.9 100.72 0.57L100.72 0.57 100.85-7.47Q100.72-8.96 99.89-9.36L99.89-9.36Q98.31-10.37 96.72-10.99L96.72-10.99Q93.69-11.95 94.17-14.15L94.17-14.15Q94.79-15.86 97.51-16.88L97.51-16.88Q98.75-17.53 97.78-17.97L97.78-17.97Q97.08-18.33 96.33-18.54L96.33-18.54Q92.42-20.17 95.54-23.2L95.54-23.2Q99.18-25.84 100.2-27.91L100.2-27.91Q100.55-28.78 101.03-29.66ZM127-29.36L127-29.36Q128.32-30.54 129.81-29.09L129.81-29.09Q130.91-28.34 129.9-26.54L129.9-26.54Q129.73-26.28 128.41-25.97L128.41-25.97Q126.43-25.62 121.46-25.4L121.46-25.4Q119.14-25.31 116.81-25.05L116.81-25.05Q115.75-24.87 115.4-23.86L115.4-23.86Q115.31-22.94 116.76-23.12L116.76-23.12Q119.58-22.76 128.06-22.72L128.06-22.72Q130.87-22.63 131.44-20.61L131.44-20.61Q131.44-20.17 131-19.29L131-19.29Q130.21-17.53 129.24-15.78L129.24-15.78Q128.45-14.63 127.53-14.72L127.53-14.72Q122.43-15.42 116.5-14.55L116.5-14.55Q115.44-14.55 115.31-13.23L115.31-13.23Q114.83-7.73 112.1-3.12L112.1-3.12Q110.3 0 108.19 0L108.19 0Q104.94-1.05 107.01-3.12L107.01-3.12Q111.62-5.93 112.37-12.74L112.37-12.74Q112.94-16.44 112.5-22.06L112.5-22.06Q112.1-24.21 112.46-26.19L112.46-26.19Q113.47-28.04 116.63-27.6L116.63-27.6Q124.01-28.21 127-29.36ZM125.29-20.39L125.29-20.39Q121.51-20.48 116.5-20L116.5-20Q115.44-19.86 115.44-18.76L115.44-18.76Q115.53-17.67 116.85-17.8L116.85-17.8Q121.29-17.67 125.86-17.75L125.86-17.75Q127.4-17.53 127.53-19.03L127.53-19.03Q128.06-20.61 125.29-20.39ZM117.11-12.17L117.11-12.17Q121.86-12.57 128.36-12.44L128.36-12.44Q130.3-12.3 131.88-11.82L131.88-11.82Q133.77-10.72 133.2-8.57L133.2-8.57Q132.98-7.34 133.07-6.11L133.07-6.11Q133.42-1.98 132.93 0.79L132.93 0.79Q132.5 2.55 131 2.07L131 2.07Q130.61 1.85 130.3 0.53L130.3 0.53Q130.21-1.05 130.3-2.68L130.3-2.68Q130.3-3.74 129.07-3.91L129.07-3.91Q127.84-3.91 127.75-2.59L127.75-2.59 127.62 0.26Q127.57 1.14 127.4 1.58L127.4 1.58Q126.87 2.5 126.17 2.24L126.17 2.24Q125.38 2.11 125.11 0.75L125.11 0.75Q124.8-0.92 124.89-2.77L124.89-2.77Q124.94-4 123.84-3.96L123.84-3.96Q122.83-3.91 122.83-2.86L122.83-2.86Q122.87-1.19 122.74 0.62L122.74 0.62Q122.56 2.81 120.85 2.2L120.85 2.2Q119.79 0.75 119.97-2.64L119.97-2.64Q120.01-3.87 118.78-3.82L118.78-3.82Q117.6-3.69 117.55-2.42L117.55-2.42Q117.47-1.41 117.51-0.4L117.51-0.4Q117.73 1.27 116.19 1.93L116.19 1.93Q115.4 1.93 114.96 1.1L114.96 1.1Q114.79 0.57 114.79-0.7L114.79-0.7 115-10.55Q115.44-12.17 117.11-12.17ZM124.98-7.69L124.94-8.75Q124.85-9.89 124.01-9.93L124.01-9.93Q123-9.84 122.87-8.53L122.87-8.53Q122.78-8.17 122.83-7.69L122.83-7.69Q122.83-6.64 123.88-6.64L123.88-6.64Q124.98-6.64 124.98-7.69L124.98-7.69ZM129.51-9.49L129.51-9.49Q127.62-10.37 127.84-8.79L127.84-8.79Q127.75-8.26 127.79-7.73L127.79-7.73Q127.79-6.68 129.07-6.72L129.07-6.72Q130.3-6.77 130.25-7.95L130.25-7.95Q130.17-9.1 129.51-9.49ZM120.06-8L120.06-8.57Q119.97-9.58 118.92-9.36L118.92-9.36Q117.91-9.01 117.82-7.95L117.82-7.95Q117.69-6.77 118.83-6.68L118.83-6.68Q120.1-6.68 120.06-8L120.06-8ZM104.59-8.44L104.59-8.44Q105.12-9.67 106.92-8.75L106.92-8.75Q108.98-8.09 109.51-6.5L109.51-6.5Q109.73-5.41 108.72-4.66L108.72-4.66Q106.74-4.04 105.64-6.9L105.64-6.9Q104.68-7.87 104.59-8.44ZM97.25-8.13L97.25-8.13Q97.87-8.92 98.53-8.26L98.53-8.26Q98.88-7.87 98.75-6.55L98.75-6.55Q98.04-3.96 95.98-1.32L95.98-1.32Q94.31 0.92 92.46-1.23L92.46-1.23Q91.71-2.64 94.17-4.39L94.17-4.39Q96.42-6.55 97.25-8.13ZM148.71-29.14L148.71-29.14Q149.5-29.71 149.9-29.84L149.9-29.84Q150.34-29.88 151.52-28.61L151.52-28.61Q153.24-26.1 149.85-25.71L149.85-25.71Q148.62-25.53 148.45-24.61L148.45-24.61 148.27-21.71Q148.27-20.61 149.59-20.65L149.59-20.65 153.24-20.65Q155.35-20.39 153.94-18.68L153.94-18.68Q152.62-17.27 151.3-17.58L151.3-17.58Q150.34-17.75 149.37-17.8L149.37-17.8Q148.27-17.8 148.27-16.74L148.27-16.74 148.4-5.54Q148.71-0.31 148.18 1.45L148.18 1.45Q147.39 3.47 145.94 2.02L145.94 2.02Q145.46 1.23 145.2-0.79L145.2-0.79 145.28-10.85Q145.28-12 144.27-10.5L144.27-10.5Q140.8-5.71 137.68-5.1L137.68-5.1Q135.92-4.97 135.97-6.77L135.97-6.77Q136.1-7.73 138.16-9.05L138.16-9.05Q142.78-12 144.8-16.3L144.8-16.3Q145.24-17.71 143.92-17.67L143.92-17.67Q142.12-17.58 140.49-17.14L140.49-17.14Q138.25-16.3 137.29-17.36L137.29-17.36Q136.76-18.37 137.46-19.38L137.46-19.38Q138.6-20.7 140.63-20.57L140.63-20.57Q142.34-20.65 144.18-20.61L144.18-20.61Q145.24-20.61 145.2-21.93L145.2-21.93 145.06-24.21Q145.02-25.14 143.83-25.14L143.83-25.14 141.86-25.14Q140.54-25.14 139.97-25.31L139.97-25.31Q139.09-25.53 139.31-26.46L139.31-26.46Q139.61-26.94 140.8-27.03L140.8-27.03Q146.34-28.17 148.71-29.14ZM157.5-27.77L157.5-27.77Q165.37-28.61 170.6-27.69L170.6-27.69Q174.11-26.98 172.88-24.52L172.88-24.52Q172.44-23.82 172.18-22.76L172.18-22.76Q171.74-20.92 170.77-19.25L170.77-19.25Q169.5-17.31 166.99-18.19L166.99-18.19Q163.48-19.12 159.61-17.71L159.61-17.71Q159.21-17.71 158.73-18.11L158.73-18.11Q158.25-18.63 157.85-19.51L157.85-19.51Q157.02-22.81 156.01-26.15L156.01-26.15Q155.87-27.25 157.5-27.77ZM162.73-25.36L162.73-25.36Q161.02-25.27 159.83-24.96L159.83-24.96Q159.7-24.74 159.79-23.42L159.79-23.42Q159.92-20.52 161.85-21.14L161.85-21.14Q164.44-21.27 167.17-21.23L167.17-21.23Q168.31-21.23 168.93-22.24L168.93-22.24 169.28-23.91Q169.32-24.96 169.1-25.14L169.1-25.14Q167.21-25.62 162.73-25.36ZM168.09-16.61L168.09-16.61Q169.32-17.62 170.38-16.13L170.38-16.13Q172.27-12.74 167.87-13.05L167.87-13.05Q166.82-12.92 166.68-11.6L166.68-11.6 166.68-10.94Q166.68-9.84 167.74-9.84L167.74-9.84Q169.45-9.89 171.17-9.76L171.17-9.76Q172.31-9.67 172.62-9.01L172.62-9.01Q173.28-7.34 170.99-7.03L170.99-7.03 168.09-7.03Q166.73-6.99 166.73-5.93L166.73-5.93 166.73-5.05Q166.82-3.74 168.13-3.74L168.13-3.74Q175.61-3.03 178.51-2.33L178.51-2.33Q179.43-1.54 177.23 0.48L177.23 0.48Q176 1.58 174.59 0.97L174.59 0.97Q169.54-1.45 161.32-1.05L161.32-1.05Q157.19-0.83 154.29 0.44L154.29 0.44Q152.14 1.63 151.04 0L151.04 0Q150.64-2.15 153.06-3.21L153.06-3.21 162.38-3.78Q163.43-3.78 163.56-5.1L163.56-5.1 163.56-5.67Q163.56-6.9 162.42-6.9L162.42-6.9Q160.05-6.81 157.68-6.55L157.68-6.55Q156.84-6.42 156.18-7.12L156.18-7.12Q155.35-8.31 157.37-9.8L157.37-9.8Q158.07-10.24 160-9.93L160-9.93 162.55-9.8Q163.48-9.8 163.48-11.34L163.48-11.34Q163.34-12.74 162.29-12.74L162.29-12.74Q160.18-12.74 158.07-12.92L158.07-12.92Q157.02-13.14 156.84-13.89L156.84-13.89Q156.8-14.37 157.68-14.63L157.68-14.63Q161.19-15.12 164.71-15.78L164.71-15.78Q167.17-16.04 168.09-16.61ZM148.58-15.38L148.58-15.38Q149.5-16.35 151.52-15.03L151.52-15.03Q154.25-13.75 154.2-11.56L154.2-11.56Q153.63-9.54 151.66-10.46L151.66-10.46Q150.51-11.12 149.9-12.96L149.9-12.96Q148.45-14.59 148.45-14.9L148.45-14.9Q148.45-15.25 148.58-15.38Z" transform="translate(-1.6433333158493042, 30.656709671020508)"></path></g> <!----> <!----> <!----> <!----> <!----> <!----> <!----></g></g> <g data-gra="path-slogan" fill-rule="" class="tp-slogan iconsvg-slogansvg" fill="#171e60" transform="translate(5,40.290618896484375)"><rect x="0" height="1" y="3.9750003814697266" width="11.683975219726562"></rect> <rect height="1" y="3.9750003814697266" width="11.683975219726562" x="155.4539794921875"></rect> <g transform="translate(14.683975219726562,0)"><g transform="scale(1)"><path d="M4.13-7.64L2.06-7.64L2.06-4.97L4.13-4.97Q5.95-4.92 5.91-6.38L5.91-6.38Q5.91-7.64 4.13-7.64L4.13-7.64ZM4.59 0L0.89 0L0.89-8.58L4.69-8.58Q6.98-8.48 7.08-6.42L7.08-6.42Q7.08-5.16 5.95-4.64L5.95-4.64Q7.55-4.08 7.55-2.53L7.55-2.53Q7.41-0.09 4.59 0L4.59 0ZM4.31-3.98L2.06-3.98L2.06-0.98L4.55-0.98Q6.33-1.03 6.38-2.53L6.38-2.53Q6.38-3.98 4.31-3.98L4.31-3.98ZM15.66-4.27L15.66-4.27Q15.47-7.64 12.66-7.83L12.66-7.83Q9.80-7.69 9.66-4.27L9.66-4.27Q9.80-0.94 12.66-0.80L12.66-0.80Q15.47-0.98 15.66-4.27ZM16.83-4.27L16.83-4.27Q16.55 0 12.66 0.14L12.66 0.14Q8.72 0 8.44-4.27L8.44-4.27Q8.67-8.72 12.66-8.81L12.66-8.81Q16.55-8.67 16.83-4.27ZM24.61-3.61L21.98-3.61L21.98-4.59L25.73-4.59L25.73 0L24.98 0L24.70-1.08Q23.72 0.09 21.89 0.14L21.89 0.14Q20.16 0.14 19.22-0.75L19.22-0.75Q17.81-2.06 17.86-4.36L17.86-4.36Q18.19-8.63 21.94-8.81L21.94-8.81Q25.13-8.63 25.59-6L25.59-6L24.47-6Q24-7.78 21.89-7.83L21.89-7.83Q19.22-7.64 19.08-4.31L19.08-4.31Q19.08-0.75 21.94-0.75L21.94-0.75Q22.97-0.75 23.72-1.31L23.72-1.31Q24.66-2.06 24.61-3.61L24.61-3.61ZM34.31-4.27L34.31-4.27Q34.13-7.64 31.31-7.83L31.31-7.83Q28.45-7.69 28.31-4.27L28.31-4.27Q28.45-0.94 31.31-0.80L31.31-0.80Q34.13-0.98 34.31-4.27ZM35.48-4.27L35.48-4.27Q35.20 0 31.31 0.14L31.31 0.14Q27.38 0 27.09-4.27L27.09-4.27Q27.33-8.72 31.31-8.81L31.31-8.81Q35.20-8.67 35.48-4.27ZM39.05-7.59L36.14-7.59L36.14-8.58L43.08-8.58L43.08-7.59L40.17-7.59L40.17 0L39.05 0L39.05-7.59ZM51.09-7.64L48.75-7.64L48.75-4.64L51.05-4.64Q52.83-4.64 52.83-6.19L52.83-6.19Q52.83-7.59 51.09-7.64L51.09-7.64ZM51.47-3.61L48.75-3.61L48.75 0L47.58 0L47.58-8.58L51.47-8.58Q53.91-8.48 54-6.19L54-6.19Q53.86-3.70 51.47-3.61L51.47-3.61ZM59.53-3.70L56.72-3.70L56.72 0L55.55 0L55.55-8.58L59.53-8.58Q62.39-8.58 62.39-6.28L62.39-6.28Q62.39-4.88 61.17-4.22L61.17-4.22Q62.20-3.94 62.20-2.58L62.20-2.58L62.30-1.03Q62.25-0.38 62.72-0.19L62.72-0.19L62.72 0L61.27 0Q61.13-0.61 61.08-2.16L61.08-2.16Q61.13-3.70 59.53-3.70L59.53-3.70ZM59.63-7.64L56.72-7.64L56.72-4.69L59.44-4.69Q61.17-4.69 61.17-6.19L61.17-6.19Q61.17-7.64 59.63-7.64L59.63-7.64ZM70.83-4.27L70.83-4.27Q70.64-7.64 67.83-7.83L67.83-7.83Q64.97-7.69 64.83-4.27L64.83-4.27Q64.97-0.94 67.83-0.80L67.83-0.80Q70.64-0.98 70.83-4.27ZM72-4.27L72-4.27Q71.72 0 67.83 0.14L67.83 0.14Q63.89 0 63.61-4.27L63.61-4.27Q63.84-8.72 67.83-8.81L67.83-8.81Q71.72-8.67 72-4.27ZM79.78-3.61L77.16-3.61L77.16-4.59L80.91-4.59L80.91 0L80.16 0L79.88-1.08Q78.89 0.09 77.06 0.14L77.06 0.14Q75.33 0.14 74.39-0.75L74.39-0.75Q72.98-2.06 73.03-4.36L73.03-4.36Q73.36-8.63 77.11-8.81L77.11-8.81Q80.30-8.63 80.77-6L80.77-6L79.64-6Q79.17-7.78 77.06-7.83L77.06-7.83Q74.39-7.64 74.25-4.31L74.25-4.31Q74.25-0.75 77.11-0.75L77.11-0.75Q78.14-0.75 78.89-1.31L78.89-1.31Q79.83-2.06 79.78-3.61L79.78-3.61ZM86.81-3.70L84-3.70L84 0L82.83 0L82.83-8.58L86.81-8.58Q89.67-8.58 89.67-6.28L89.67-6.28Q89.67-4.88 88.45-4.22L88.45-4.22Q89.48-3.94 89.48-2.58L89.48-2.58L89.58-1.03Q89.53-0.38 90-0.19L90-0.19L90 0L88.55 0Q88.41-0.61 88.36-2.16L88.36-2.16Q88.41-3.70 86.81-3.70L86.81-3.70ZM86.91-7.64L84-7.64L84-4.69L86.72-4.69Q88.45-4.69 88.45-6.19L88.45-6.19Q88.45-7.64 86.91-7.64L86.91-7.64ZM96.98 0L96.14-2.48L92.67-2.48L91.78 0L90.61 0L93.84-8.58L95.16-8.58L98.25 0L96.98 0ZM94.41-7.31L93.05-3.52L95.72-3.52L94.45-7.31L94.41-7.31ZM107.53-8.58L107.53 0L106.41 0L106.41-5.06Q106.41-5.77 106.41-7.22L106.41-7.22L103.97 0L102.80 0L100.41-7.22L100.36-7.22Q100.36-6.70 100.41-5.67L100.41-5.67Q100.41-5.16 100.41-5.06L100.41-5.06L100.41 0L99.23 0L99.23-8.58L100.92-8.58L103.41-1.31L105.84-8.58L107.53-8.58ZM117.47-8.58L117.47 0L116.34 0L116.34-5.06Q116.34-5.77 116.34-7.22L116.34-7.22L113.91 0L112.73 0L110.34-7.22L110.30-7.22Q110.30-6.70 110.34-5.67L110.34-5.67Q110.34-5.16 110.34-5.06L110.34-5.06L110.34 0L109.17 0L109.17-8.58L110.86-8.58L113.34-1.31L115.78-8.58L117.47-8.58ZM119.34-8.58L120.52-8.58L120.52 0L119.34 0L119.34-8.58ZM123.89-8.58L128.20-1.64L128.20-8.58L129.33-8.58L129.33 0L128.02 0L123.66-6.94L123.61-6.94L123.61 0L122.48 0L122.48-8.58L123.89-8.58ZM137.53-3.61L134.91-3.61L134.91-4.59L138.66-4.59L138.66 0L137.91 0L137.63-1.08Q136.64 0.09 134.81 0.14L134.81 0.14Q133.08 0.14 132.14-0.75L132.14-0.75Q130.73-2.06 130.78-4.36L130.78-4.36Q131.11-8.63 134.86-8.81L134.86-8.81Q138.05-8.63 138.52-6L138.52-6L137.39-6Q136.92-7.78 134.81-7.83L134.81-7.83Q132.14-7.64 132-4.31L132-4.31Q132-0.75 134.86-0.75L134.86-0.75Q135.89-0.75 136.64-1.31L136.64-1.31Q137.58-2.06 137.53-3.61L137.53-3.61Z" transform="translate(-0.890625, 8.8125)"></path></g></g></g></g></g><defs v-gra="od"></defs></svg>